<mxfile host="Electron" modified="2024-05-07T08:40:03.198Z" agent="Mozilla/5.0 (X11; Linux x86_64) AppleWebKit/537.36 (KHTML, like Gecko) draw.io/24.2.5 Chrome/120.0.6099.109 Electron/28.1.0 Safari/537.36" etag="s7WbnecCJS5ASnFTqtJX" version="24.2.5" type="device">
  <diagram id="C5RBs43oDa-KdzZeNtuy" name="Page-1">
    <mxGraphModel dx="1195" dy="698" grid="1" gridSize="10" guides="1" tooltips="1" connect="1" arrows="1" fold="1" page="1" pageScale="1" pageWidth="827" pageHeight="1169" math="0" shadow="0">
      <root>
        <mxCell id="WIyWlLk6GJQsqaUBKTNV-0" />
        <mxCell id="WIyWlLk6GJQsqaUBKTNV-1" parent="WIyWlLk6GJQsqaUBKTNV-0" />
        <mxCell id="oa29Ow8HKXUNtA9JQzhb-3" style="edgeStyle=orthogonalEdgeStyle;rounded=0;orthogonalLoop=1;jettySize=auto;html=1;entryX=0;entryY=0.5;entryDx=0;entryDy=0;" edge="1" parent="WIyWlLk6GJQsqaUBKTNV-1" source="oa29Ow8HKXUNtA9JQzhb-1" target="oa29Ow8HKXUNtA9JQzhb-2">
          <mxGeometry relative="1" as="geometry" />
        </mxCell>
        <mxCell id="oa29Ow8HKXUNtA9JQzhb-1" value="Lancement du logiciel" style="rounded=1;whiteSpace=wrap;html=1;" vertex="1" parent="WIyWlLk6GJQsqaUBKTNV-1">
          <mxGeometry x="90" y="120" width="120" height="60" as="geometry" />
        </mxCell>
        <mxCell id="oa29Ow8HKXUNtA9JQzhb-8" style="edgeStyle=orthogonalEdgeStyle;rounded=0;orthogonalLoop=1;jettySize=auto;html=1;" edge="1" parent="WIyWlLk6GJQsqaUBKTNV-1" source="oa29Ow8HKXUNtA9JQzhb-2" target="oa29Ow8HKXUNtA9JQzhb-7">
          <mxGeometry relative="1" as="geometry" />
        </mxCell>
        <mxCell id="oa29Ow8HKXUNtA9JQzhb-2" value="Page de connection" style="whiteSpace=wrap;html=1;" vertex="1" parent="WIyWlLk6GJQsqaUBKTNV-1">
          <mxGeometry x="260" y="120" width="120" height="60" as="geometry" />
        </mxCell>
        <mxCell id="oa29Ow8HKXUNtA9JQzhb-9" value="Oui" style="edgeStyle=orthogonalEdgeStyle;rounded=0;orthogonalLoop=1;jettySize=auto;html=1;" edge="1" parent="WIyWlLk6GJQsqaUBKTNV-1" source="oa29Ow8HKXUNtA9JQzhb-7">
          <mxGeometry relative="1" as="geometry">
            <mxPoint x="570" y="150" as="targetPoint" />
          </mxGeometry>
        </mxCell>
        <mxCell id="oa29Ow8HKXUNtA9JQzhb-11" value="non" style="edgeStyle=orthogonalEdgeStyle;rounded=0;orthogonalLoop=1;jettySize=auto;html=1;exitX=0.5;exitY=1;exitDx=0;exitDy=0;" edge="1" parent="WIyWlLk6GJQsqaUBKTNV-1" source="oa29Ow8HKXUNtA9JQzhb-7">
          <mxGeometry relative="1" as="geometry">
            <mxPoint x="454" y="230" as="targetPoint" />
          </mxGeometry>
        </mxCell>
        <mxCell id="oa29Ow8HKXUNtA9JQzhb-7" value="Créer nouveau projet ?" style="rhombus;whiteSpace=wrap;html=1;" vertex="1" parent="WIyWlLk6GJQsqaUBKTNV-1">
          <mxGeometry x="414" y="110" width="80" height="80" as="geometry" />
        </mxCell>
        <mxCell id="oa29Ow8HKXUNtA9JQzhb-12" value="blason" style="shape=parallelogram;perimeter=parallelogramPerimeter;whiteSpace=wrap;html=1;fixedSize=1;" vertex="1" parent="WIyWlLk6GJQsqaUBKTNV-1">
          <mxGeometry x="530" y="40" width="90" height="40" as="geometry" />
        </mxCell>
        <mxCell id="oa29Ow8HKXUNtA9JQzhb-21" style="edgeStyle=orthogonalEdgeStyle;rounded=0;orthogonalLoop=1;jettySize=auto;html=1;entryX=0.5;entryY=0;entryDx=0;entryDy=0;" edge="1" parent="WIyWlLk6GJQsqaUBKTNV-1" source="oa29Ow8HKXUNtA9JQzhb-13" target="oa29Ow8HKXUNtA9JQzhb-18">
          <mxGeometry relative="1" as="geometry" />
        </mxCell>
        <mxCell id="oa29Ow8HKXUNtA9JQzhb-13" value="Page création nouveau Projet" style="rounded=0;whiteSpace=wrap;html=1;" vertex="1" parent="WIyWlLk6GJQsqaUBKTNV-1">
          <mxGeometry x="570" y="120" width="120" height="60" as="geometry" />
        </mxCell>
        <mxCell id="oa29Ow8HKXUNtA9JQzhb-14" style="edgeStyle=orthogonalEdgeStyle;rounded=0;orthogonalLoop=1;jettySize=auto;html=1;exitX=0.75;exitY=1;exitDx=0;exitDy=0;entryX=0.431;entryY=-0.036;entryDx=0;entryDy=0;entryPerimeter=0;" edge="1" parent="WIyWlLk6GJQsqaUBKTNV-1" source="oa29Ow8HKXUNtA9JQzhb-12" target="oa29Ow8HKXUNtA9JQzhb-13">
          <mxGeometry relative="1" as="geometry" />
        </mxCell>
        <mxCell id="oa29Ow8HKXUNtA9JQzhb-19" style="edgeStyle=orthogonalEdgeStyle;rounded=0;orthogonalLoop=1;jettySize=auto;html=1;entryX=0.5;entryY=0;entryDx=0;entryDy=0;" edge="1" parent="WIyWlLk6GJQsqaUBKTNV-1" source="oa29Ow8HKXUNtA9JQzhb-15" target="oa29Ow8HKXUNtA9JQzhb-18">
          <mxGeometry relative="1" as="geometry" />
        </mxCell>
        <mxCell id="oa29Ow8HKXUNtA9JQzhb-15" value="Page choix projets existants" style="rounded=0;whiteSpace=wrap;html=1;" vertex="1" parent="WIyWlLk6GJQsqaUBKTNV-1">
          <mxGeometry x="394" y="230" width="120" height="60" as="geometry" />
        </mxCell>
        <mxCell id="oa29Ow8HKXUNtA9JQzhb-18" value="Page Accueil Projet" style="whiteSpace=wrap;html=1;" vertex="1" parent="WIyWlLk6GJQsqaUBKTNV-1">
          <mxGeometry x="570" y="330" width="120" height="60" as="geometry" />
        </mxCell>
      </root>
    </mxGraphModel>
  </diagram>
</mxfile>
